<svg xmlns="http://www.w3.org/2000/svg" width="800" height="450" viewBox="0 0 800 450" role="img" aria-labelledby="t"><title id="t">Industrial dust hazard visual</title><defs><radialGradient id="r" cx="72%" cy="18%" r="62%"><stop offset="0" stop-color="#ff7a1a" stop-opacity=".36"/><stop offset=".46" stop-color="#12151b" stop-opacity=".92"/><stop offset="1" stop-color="#07090d"/></radialGradient><linearGradient id="g" x1="0" x2="1"><stop stop-color="#ff4f1a"/><stop offset="1" stop-color="#ffb347"/></linearGradient><filter id="blur"><feGaussianBlur stdDeviation="18"/></filter></defs><rect width="800" height="450" fill="url(#r)"/><circle cx="675" cy="80" r="115" fill="url(#g)" opacity=".16" filter="url(#blur)"/><circle cx="110" cy="390" r="120" fill="#ff4f1a" opacity=".12" filter="url(#blur)"/><g opacity=".8"><rect x="90" y="225" width="620" height="120" rx="18" fill="#161a21"/><path d="M145 225v-80h115v80M322 225v-115h145v115M520 225v-65h105v65" fill="#22262f"/><g fill="#ffb347" opacity=".45"><circle cx="180" cy="115" r="4"/><circle cx="213" cy="92" r="3"/><circle cx="260" cy="137" r="5"/><circle cx="380" cy="75" r="4"/><circle cx="430" cy="125" r="3"/><circle cx="575" cy="112" r="5"/><circle cx="620" cy="83" r="3"/><circle cx="675" cy="130" r="4"/><circle cx="510" cy="90" r="3"/><circle cx="330" cy="145" r="4"/></g><circle cx="410" cy="142" r="82" fill="none" stroke="#ff7a1a" stroke-width="3" stroke-dasharray="12 14" opacity=".4"/></g><path d="M0 405c160-65 275-58 390-10s234 50 410-25v80H0z" fill="#000" opacity=".24"/></svg>