<svg xmlns="http://www.w3.org/2000/svg" width="800" height="450" viewBox="0 0 800 450" role="img" aria-labelledby="t"><title id="t">Abstract fire engineering hero visual</title><defs><radialGradient id="r" cx="72%" cy="18%" r="62%"><stop offset="0" stop-color="#ff7a1a" stop-opacity=".36"/><stop offset=".46" stop-color="#12151b" stop-opacity=".92"/><stop offset="1" stop-color="#07090d"/></radialGradient><linearGradient id="g" x1="0" x2="1"><stop stop-color="#ff4f1a"/><stop offset="1" stop-color="#ffb347"/></linearGradient><filter id="blur"><feGaussianBlur stdDeviation="18"/></filter></defs><rect width="800" height="450" fill="url(#r)"/><circle cx="675" cy="80" r="115" fill="url(#g)" opacity=".16" filter="url(#blur)"/><circle cx="110" cy="390" r="120" fill="#ff4f1a" opacity=".12" filter="url(#blur)"/><g opacity=".78"><rect x="150" y="130" width="120" height="250" rx="10" fill="#16191f" stroke="#ff7a1a" stroke-opacity=".28"/><rect x="300" y="95" width="170" height="285" rx="10" fill="#101319" stroke="#ffb347" stroke-opacity=".18"/><rect x="500" y="155" width="140" height="225" rx="10" fill="#151820" stroke="#ff4f1a" stroke-opacity=".2"/></g><g opacity=".55"><rect x="177" y="150" width="18" height="8" rx="3" fill="#fff" opacity=".22"/><rect x="177" y="190" width="18" height="8" rx="3" fill="#fff" opacity=".22"/><rect x="177" y="230" width="18" height="8" rx="3" fill="#fff" opacity=".22"/><rect x="177" y="270" width="18" height="8" rx="3" fill="#fff" opacity=".22"/><rect x="177" y="310" width="18" height="8" rx="3" fill="#fff" opacity=".22"/><rect x="210" y="150" width="18" height="8" rx="3" fill="#fff" opacity=".22"/><rect x="210" y="190" width="18" height="8" rx="3" fill="#fff" opacity=".22"/><rect x="210" y="230" width="18" height="8" rx="3" fill="#fff" opacity=".22"/><rect x="210" y="270" width="18" height="8" rx="3" fill="#fff" opacity=".22"/><rect x="210" y="310" width="18" height="8" rx="3" fill="#fff" opacity=".22"/><rect x="330" y="150" width="18" height="8" rx="3" fill="#fff" opacity=".22"/><rect x="330" y="190" width="18" height="8" rx="3" fill="#fff" opacity=".22"/><rect x="330" y="230" width="18" height="8" rx="3" fill="#fff" opacity=".22"/><rect x="330" y="270" width="18" height="8" rx="3" fill="#fff" opacity=".22"/><rect x="330" y="310" width="18" height="8" rx="3" fill="#fff" opacity=".22"/><rect x="365" y="150" width="18" height="8" rx="3" fill="#fff" opacity=".22"/><rect x="365" y="190" width="18" height="8" rx="3" fill="#fff" opacity=".22"/><rect x="365" y="230" width="18" height="8" rx="3" fill="#fff" opacity=".22"/><rect x="365" y="270" width="18" height="8" rx="3" fill="#fff" opacity=".22"/><rect x="365" y="310" width="18" height="8" rx="3" fill="#fff" opacity=".22"/><rect x="400" y="150" width="18" height="8" rx="3" fill="#fff" opacity=".22"/><rect x="400" y="190" width="18" height="8" rx="3" fill="#fff" opacity=".22"/><rect x="400" y="230" width="18" height="8" rx="3" fill="#fff" opacity=".22"/><rect x="400" y="270" width="18" height="8" rx="3" fill="#fff" opacity=".22"/><rect x="400" y="310" width="18" height="8" rx="3" fill="#fff" opacity=".22"/><rect x="530" y="150" width="18" height="8" rx="3" fill="#fff" opacity=".22"/><rect x="530" y="190" width="18" height="8" rx="3" fill="#fff" opacity=".22"/><rect x="530" y="230" width="18" height="8" rx="3" fill="#fff" opacity=".22"/><rect x="530" y="270" width="18" height="8" rx="3" fill="#fff" opacity=".22"/><rect x="530" y="310" width="18" height="8" rx="3" fill="#fff" opacity=".22"/><rect x="565" y="150" width="18" height="8" rx="3" fill="#fff" opacity=".22"/><rect x="565" y="190" width="18" height="8" rx="3" fill="#fff" opacity=".22"/><rect x="565" y="230" width="18" height="8" rx="3" fill="#fff" opacity=".22"/><rect x="565" y="270" width="18" height="8" rx="3" fill="#fff" opacity=".22"/><rect x="565" y="310" width="18" height="8" rx="3" fill="#fff" opacity=".22"/></g><path d="M0 405c160-65 275-58 390-10s234 50 410-25v80H0z" fill="#000" opacity=".24"/></svg>