<svg xmlns="http://www.w3.org/2000/svg" width="800" height="450" viewBox="0 0 800 450" role="img" aria-labelledby="t"><title id="t">Consulting meeting concept</title><defs><radialGradient id="r" cx="72%" cy="18%" r="62%"><stop offset="0" stop-color="#ff7a1a" stop-opacity=".36"/><stop offset=".46" stop-color="#12151b" stop-opacity=".92"/><stop offset="1" stop-color="#07090d"/></radialGradient><linearGradient id="g" x1="0" x2="1"><stop stop-color="#ff4f1a"/><stop offset="1" stop-color="#ffb347"/></linearGradient><filter id="blur"><feGaussianBlur stdDeviation="18"/></filter></defs><rect width="800" height="450" fill="url(#r)"/><circle cx="675" cy="80" r="115" fill="url(#g)" opacity=".16" filter="url(#blur)"/><circle cx="110" cy="390" r="120" fill="#ff4f1a" opacity=".12" filter="url(#blur)"/><g transform="translate(120 105)"><rect x="0" y="150" width="560" height="110" rx="24" fill="#171b22"/><rect x="55" y="55" width="220" height="125" rx="18" fill="#f1f3f5" opacity=".88"/><path d="M80 95h165M80 125h120M80 155h145" stroke="#111" stroke-opacity=".24" stroke-width="7"/><circle cx="420" cy="90" r="42" fill="#ff7a1a" opacity=".27"/><circle cx="470" cy="118" r="34" fill="#fff" opacity=".08"/><path d="M310 185c40-44 88-65 145-60" stroke="#ff7a1a" stroke-width="10" stroke-linecap="round" opacity=".7"/></g><path d="M0 405c160-65 275-58 390-10s234 50 410-25v80H0z" fill="#000" opacity=".24"/></svg>