<svg xmlns="http://www.w3.org/2000/svg" width="800" height="450" viewBox="0 0 800 450" role="img" aria-labelledby="t"><title id="t">Fire safety plans concept</title><defs><radialGradient id="r" cx="72%" cy="18%" r="62%"><stop offset="0" stop-color="#ff7a1a" stop-opacity=".36"/><stop offset=".46" stop-color="#12151b" stop-opacity=".92"/><stop offset="1" stop-color="#07090d"/></radialGradient><linearGradient id="g" x1="0" x2="1"><stop stop-color="#ff4f1a"/><stop offset="1" stop-color="#ffb347"/></linearGradient><filter id="blur"><feGaussianBlur stdDeviation="18"/></filter></defs><rect width="800" height="450" fill="url(#r)"/><circle cx="675" cy="80" r="115" fill="url(#g)" opacity=".16" filter="url(#blur)"/><circle cx="110" cy="390" r="120" fill="#ff4f1a" opacity=".12" filter="url(#blur)"/><g transform="translate(120 95) rotate(-6)"><rect x="0" y="0" width="560" height="310" rx="18" fill="#f2f3f5" opacity=".9"/><path d="M45 70h470M45 130h470M45 190h470M45 250h470M110 35v260M220 35v260M340 35v260M455 35v260" stroke="#111" stroke-opacity=".16"/><path d="M120 90h170v100h-60v70h-110z" fill="none" stroke="#111" stroke-width="5" stroke-opacity=".35"/><circle cx="430" cy="130" r="54" fill="#ff7a1a" opacity=".25"/><path d="M405 160c38-5 70-38 62-76" stroke="#ff7a1a" stroke-width="12" stroke-linecap="round" opacity=".5"/></g><path d="M0 405c160-65 275-58 390-10s234 50 410-25v80H0z" fill="#000" opacity=".24"/></svg>