<svg xmlns="http://www.w3.org/2000/svg" width="800" height="450" viewBox="0 0 800 450" role="img" aria-labelledby="t"><title id="t">Industrial fire safety concept</title><defs><radialGradient id="r" cx="72%" cy="18%" r="62%"><stop offset="0" stop-color="#ff7a1a" stop-opacity=".36"/><stop offset=".46" stop-color="#12151b" stop-opacity=".92"/><stop offset="1" stop-color="#07090d"/></radialGradient><linearGradient id="g" x1="0" x2="1"><stop stop-color="#ff4f1a"/><stop offset="1" stop-color="#ffb347"/></linearGradient><filter id="blur"><feGaussianBlur stdDeviation="18"/></filter></defs><rect width="800" height="450" fill="url(#r)"/><circle cx="675" cy="80" r="115" fill="url(#g)" opacity=".16" filter="url(#blur)"/><circle cx="110" cy="390" r="120" fill="#ff4f1a" opacity=".12" filter="url(#blur)"/><g opacity=".86"><rect x="90" y="255" width="620" height="95" rx="14" fill="#151820"/><path d="M120 255v-70h75v70M240 255v-105h75v105M360 255v-130h75v130M530 255v-85h100v85" fill="#20242b" stroke="#ff7a1a" stroke-opacity=".2"/><path d="M435 180l120 75" stroke="#aeb4bf" stroke-opacity=".28" stroke-width="8"/><circle cx="258" cy="142" r="18" fill="#ff7a1a" opacity=".85"/><circle cx="258" cy="142" r="56" fill="#ff7a1a" opacity=".12"/><path d="M70 325c130-50 230-50 345-2s215 40 315-18" stroke="#ff7a1a" stroke-opacity=".35" stroke-width="4" fill="none"/></g><path d="M0 405c160-65 275-58 390-10s234 50 410-25v80H0z" fill="#000" opacity=".24"/></svg>