<svg xmlns="http://www.w3.org/2000/svg" width="800" height="450" viewBox="0 0 800 450" role="img" aria-labelledby="t"><title id="t">Commercial corridor fire safety concept</title><defs><radialGradient id="r" cx="72%" cy="18%" r="62%"><stop offset="0" stop-color="#ff7a1a" stop-opacity=".36"/><stop offset=".46" stop-color="#12151b" stop-opacity=".92"/><stop offset="1" stop-color="#07090d"/></radialGradient><linearGradient id="g" x1="0" x2="1"><stop stop-color="#ff4f1a"/><stop offset="1" stop-color="#ffb347"/></linearGradient><filter id="blur"><feGaussianBlur stdDeviation="18"/></filter></defs><rect width="800" height="450" fill="url(#r)"/><circle cx="675" cy="80" r="115" fill="url(#g)" opacity=".16" filter="url(#blur)"/><circle cx="110" cy="390" r="120" fill="#ff4f1a" opacity=".12" filter="url(#blur)"/><g transform="translate(100 70)"><path d="M0 285L245 0h210l245 285z" fill="#171b22" stroke="#ff7a1a" stroke-opacity=".16"/><path d="M245 0v285M455 0v285" stroke="#fff" stroke-opacity=".12"/><rect x="112" y="105" width="64" height="180" fill="#242933"/><rect x="520" y="105" width="64" height="180" fill="#242933"/><path d="M350 32v245" stroke="#ff7a1a" stroke-opacity=".45" stroke-width="3"/><circle cx="350" cy="78" r="12" fill="#ff7a1a" opacity=".8"/><path d="M250 285h200" stroke="#fff" stroke-opacity=".2" stroke-width="5"/></g><path d="M0 405c160-65 275-58 390-10s234 50 410-25v80H0z" fill="#000" opacity=".24"/></svg>