<svg xmlns="http://www.w3.org/2000/svg" width="800" height="450" viewBox="0 0 800 450" role="img" aria-labelledby="t"><title id="t">Abstract fire engineering concept</title><defs><radialGradient id="r" cx="72%" cy="18%" r="62%"><stop offset="0" stop-color="#ff7a1a" stop-opacity=".36"/><stop offset=".46" stop-color="#12151b" stop-opacity=".92"/><stop offset="1" stop-color="#07090d"/></radialGradient><linearGradient id="g" x1="0" x2="1"><stop stop-color="#ff4f1a"/><stop offset="1" stop-color="#ffb347"/></linearGradient><filter id="blur"><feGaussianBlur stdDeviation="18"/></filter></defs><rect width="800" height="450" fill="url(#r)"/><circle cx="675" cy="80" r="115" fill="url(#g)" opacity=".16" filter="url(#blur)"/><circle cx="110" cy="390" r="120" fill="#ff4f1a" opacity=".12" filter="url(#blur)"/><g opacity=".45"><path d="M70 90h660M70 170h660M70 250h660M70 330h660M150 40v360M270 40v360M390 40v360M510 40v360M630 40v360" stroke="#fff" stroke-opacity=".15"/><path d="M120 310C245 220 286 255 370 170s170-60 290-140" stroke="#ff7a1a" stroke-width="7" fill="none" stroke-linecap="round"/><circle cx="370" cy="170" r="70" fill="#ff7a1a" opacity=".12"/><circle cx="370" cy="170" r="16" fill="#ff7a1a" opacity=".9"/></g><path d="M0 405c160-65 275-58 390-10s234 50 410-25v80H0z" fill="#000" opacity=".24"/></svg>